<?xml version="1.0" encoding="UTF-8"?><svg id="a" xmlns="http://www.w3.org/2000/svg" viewBox="0 0 595.28 595.28"><path d="M287.69,264.89c-43.79,0-79.42-35.15-79.42-78.35s35.63-78.35,79.42-78.35,79.42,35.15,79.42,78.35-35.63,78.35-79.42,78.35ZM287.69,119.18c-37.73,0-68.43,30.22-68.43,67.36s30.7,67.36,68.43,67.36,68.43-30.22,68.43-67.36-30.7-67.36-68.43-67.36Z"/><path d="M314.41,348.79l5.25-7.28,18.44,10.7c-1.87,10.31-18.84,2.23-18.84,2.23l-4.85-5.66h0Z"/><path d="M331.26,357.77c-5.37,0-11.54-2.9-11.88-3.06l-.17-.13-5.11-5.96,5.75-7.96,19.13,11.11-.06.34c-.4,2.24-1.52,3.83-3.3,4.75-1.27.65-2.78.9-4.37.9h0ZM319.91,353.84c1.04.48,10.4,4.63,15.26,2.13,1.43-.73,2.31-1.94,2.71-3.7l-17.74-10.3-4.76,6.59,4.52,5.28h.01Z"/><path d="M271.08,335.18l.88-18.32-11.32,9.3c1.21,12.93,10.43,9.02,10.43,9.02h.01Z"/><path d="M268.08,336.24c-1.11,0-2.38-.22-3.59-.95-2.45-1.46-3.91-4.52-4.34-9.09l-.02-.26,12.39-10.18-.95,19.76-.29.12c-.09.04-1.44.6-3.2.6ZM261.18,326.37c.43,4.09,1.71,6.8,3.83,8.06,2.22,1.32,4.75.67,5.59.39l.81-16.86-10.24,8.41h.01Z"/><path d="M282.82,238.42c-12.93-6.87-8.28-13.38-8.28-13.38l8.68,3.28-.4,10.1Z" fill="#0b0035"/><path d="M282.96,239.39l-.7-.37c-5.3-2.82-8.39-5.93-9.17-9.26-.67-2.86.66-4.77.72-4.85l.22-.31,9.38,3.54-.45,11.26h0ZM274.43,225.81c-.3.59-.8,1.94-.37,3.75.68,2.84,3.43,5.66,7.96,8.19l.36-8.94-7.95-3h0Z"/><path d="M386.44,224.29l13.52-4.8c-1.73,8.57-3.35,11-3.35,11l-10.17-6.19h0Z" fill="#0b0035"/><path d="M397.04,231.28l-11.47-6.99,15.34-5.45-.17.87c-1.74,8.57-3.36,11.07-3.43,11.17l-.27.4h0ZM387.89,224.53l8.82,5.38c.48-.96,1.63-3.68,2.87-9.53l-11.69,4.15Z"/><path d="M215.85,348.73l-10.8-39.51c-3.53-28.94,47.05-27.93,47.05-27.93,23.29,7.06,19.09,43.63,19.09,43.63l-30.81,2.18s6.36,11.95,9.51,20.98" fill="#ffdbbb"/><path d="M242.87,433.37l-.99-.15c.88-5.94-4.22-8.9-4.44-9.02l-.17-.1-.06-.19-5.85-18.58-26.79-95.97c-.76-6.19.82-11.46,4.69-15.74,12-13.29,41.6-12.86,42.85-12.83l.14.02c9.71,2.94,16.15,11.54,18.63,24.85,1.85,9.98.83,19.23.82,19.32l-.05.41-30.46,2.16c1.39,2.67,6.25,12.76,8.94,20.5,2.91,8.33,4.22,52.81,4.26,54.7v.11l-.04.1c-5.38,12.44-10.8,26.34-10.84,28.96.05-.05.12-.1.19-.18l.71.71c-.25.25-.91.9-1.49.53,0,.13-.03.26-.05.39h0ZM238.11,423.44c.79.5,3.97,2.76,4.71,6.75.52-2.13,1.81-6,4.63-13.13,2.67-6.76,5.56-13.49,5.94-14.38-.06-2.52-1.17-46.43-3.96-54.42-3.1-8.89-9.42-20.79-9.48-20.91l-.36-.68,31.16-2.21c.17-1.89.76-9.98-.85-18.63-2.43-13.06-8.44-21.15-17.86-24.03-1.62-.02-30.6-.15-42.03,12.5-3.66,4.06-5.16,9.06-4.46,14.87l26.77,95.88,5.79,18.38h0Z"/><path d="M287.58,329.71c-15.6,24.96-16.13,24.01-15.4,32.77.65,7.78,10.99,44.14,11.12,42.62l37.58-10.93c-1.98-6.51-14.68-22.91-14.68-22.91l35.24-34.35-53.86-7.19h0Z" fill="#ffdbbb" stroke="#000" stroke-miterlimit="10"/><path d="M393.01,220.43c16.33,15.44,19.42,18.98,19.42,18.98,0,11.03-24.95,67.06-24.95,67.06-.11.25-.15.67-.08.94l1.78,6.78c.13.5-.33.95-.82.82l-3.34-.91c-.24-.07-.43-.26-.48-.51l-1.35-7.26q-.03-.18,0,0l1.26,6.76c.05.27.3.57.56.68l1.13.45c.26.1.54.4.63.66l1.43,4.08c.02.43-.8.98-1.32.49l-5.62-5.3c-.11-.1-.18-.24-.2-.39l-1.22-8.1q-.03-.18,0,0l1.14,7.61c.04.27.22.66.41.87l1.48,1.64c.18.2.4.59.48.85l1.45,4.82c.2.64-.57,1.15-1.08.7l-4.3-4.42c-.12-.1-1.79-3.31-1.81-3.47l-.88-8.15c-.03-.27-.02-.27.02,0l1.97,12.94c.12.8-1.02,1.09-1.29.33l-2.64-5.29c-.12-.25-.23-.67-.23-.95l-.16-12.62c.51,5.16-.15,5.97-.15,5.97-.17.21-.54.39-.82.4l-.85.02c-.27,0-.66-.15-.85-.35l-.76-.79c-.2-4.46,6.64-16.47,6.64-16.47.14-.24.28-.66.33-.93l6.55-39.03c.05-.27-.07-.65-.26-.85l-10.82-11.2c-.19-.2-.17-.5.04-.68l19.56-16.16v-.02Z" fill="#ffdbbb"/><path d="M393.01,220.43c16.33,15.44,19.42,18.98,19.42,18.98,0,11.03-24.95,67.06-24.95,67.06-.11.25-.15.67-.08.94l1.78,6.78c.13.5-.33.95-.82.82l-3.34-.91c-.24-.07-.43-.26-.48-.51l-1.35-7.26q-.03-.18,0,0l1.26,6.76c.05.27.3.57.56.68l1.13.45c.26.1.54.4.63.66l1.43,4.08c.02.43-.8.98-1.32.49l-5.62-5.3c-.11-.1-.18-.24-.2-.39l-1.22-8.1q-.03-.18,0,0l1.14,7.61c.04.27.22.66.41.87l1.48,1.64c.18.2.4.59.48.85l1.45,4.82c.2.64-.57,1.15-1.08.7l-4.3-4.42c-.12-.1-1.79-3.31-1.81-3.47l-.88-8.15c-.03-.27-.02-.27.02,0l1.97,12.94c.12.8-1.02,1.09-1.29.33l-2.64-5.29c-.12-.25-.23-.67-.23-.95l-.16-12.62c.51,5.16-.15,5.97-.15,5.97-.17.21-.54.39-.82.4l-.85.02c-.27,0-.66-.15-.85-.35l-.76-.79c-.2-4.46,6.64-16.47,6.64-16.47.14-.24.28-.66.33-.93l6.55-39.03c.05-.27-.07-.65-.26-.85l-10.82-11.2c-.19-.2-.17-.5.04-.68l19.56-16.16v-.02Z" fill="none" stroke="#000" stroke-miterlimit="10"/><path d="M385.27,248.14l-6.91,40.2-.04.08c-.07.12-6.83,12.04-6.83,16.46l.81.85,1.28-.03c.11-.37.28-1.08.38-2.17l-.06-4.77,1-.06c.21,2.07.18,3.69.07,4.89l.12,9.24,2.81,5.63c.04.09.07.2.22.16s.13-.15.13-.19l-.54-3.57c-.31-.63-.56-1.15-.57-1.22l-.93-8.66.99-.13,1.48,9.74c.46.87,1.05,1.98,1.16,2.14l4.27,4.39s.12.02.17-.01c.05-.03.1-.09.07-.19l-1.57-5.19-.86-.95-.99-.93c-.15-.14-.26-.32-.32-.51v-.02l-.04-.15h0l-1.29-8.6.99-.15,1.27,8.45,1.09,1.21,4.6,4.34s.09.07.2.05c.11-.03.2-.1.25-.15l-1.41-4.03-1.38-.38c-.33-.09-.59-.31-.74-.61l-.05-.02-1.49-8.02.98-.18,1.39,7.48,2.02.8.04.1,1.46.4c.08.02.14-.02.16-.04.03-.03.07-.08.04-.16l-1.96-7.43.07-.16c.25-.56,24.87-55.53,25.15-66.78-.72-.79-4.83-5.45-18.98-18.84l-19.18,16.37" fill="none"/><path d="M303.32,236.51c-6.03,21.65-20.52,27.83-20.52,27.83-8.52,4.5-49.81,10.66-60.11,12.09-1.53.21-2.97.89-4.1,1.94l-3.71,3.41c-.4.37-1.17.11-1.29-.42v-.1c-.05-.23,2.25-4.56,2.25-4.56-.2.18-1.77,1.72-1.95,1.92l-3.54,4.11c-.49.57-1.41.07-1.21-.65l2.66-5.79c.04-.15.23-.61.35-.71,0,0,5.98-5.59,5.95-5.56l-5.58,5.22c-.2.19-.53.5-.72.69l-1.29,1.26c-.17.16-.32.33-.47.51l-2.82,3.29c-.5.5-1.69-.49-1.53-1.18l1.49-3.92c.5-1.32,1.35-2.11,2.48-2.97.19-.15.36-.17.4-.2l6.45-5.05c.22-.17.47-.36.57-.43s0,.01-.22.18l-5.94,4.67c-.47.37-1.22.85-1.77,1.1l-3.2,1.42c-.68.51-1.51-.41-.94-1.04l2.95-3.22c.19-.2.51-.51.72-.69l.69-.59c.21-.18.57-.45.8-.6l3.26-2.13c1.08-.71,1.37-1.12,2.66-1.24.33-.03,1.73-.4,2.06-.48,1.61-.35,1.58-.64,1.56-.63-2.84,1.24-4.22,1.16-4.91,1.01-.38-.08-.67-.36-.76-.74-.16-.69-.29-1.76.33-1.99,8.53-3.16,15.5-2.41,15.5-2.41.27.03.72.06,1,.06h.59c.27.02.7-.08.95-.19l37.35-17.71c.25-.12.59-.4.75-.62l12.24-16.56c.16-.22.49-.29.73-.15l19.85,11.77v.05Z" fill="#ffdbbb"/><path d="M302.95,236.21c-6.03,21.65-20.52,27.83-20.52,27.83-8.52,4.5-49.81,10.66-60.11,12.09-1.53.21-2.97.89-4.1,1.94l-3.71,3.41c-.4.37-1.17.11-1.29-.42v-.1c-.05-.23,5.39-6.88,6.38-8.14l-1.51,1.38s1.72-1.56,1.51-1.38l-5.38,4.79c-.2.18-.52.51-.7.71l-3.54,4.11c-.49.57-1.41.07-1.21-.65l2.66-5.79c.04-.15.23-.61.35-.71,0,0,5.98-5.59,5.95-5.56l-5.58,5.22c-.2.19-.53.5-.72.69l-1.29,1.26c-.17.16-.32.33-.47.51l-2.82,3.29c-.5.5-1.69-.49-1.53-1.18l1.49-3.92c.5-1.32,1.35-2.11,2.48-2.97.19-.15.36-.17.4-.2l6.45-5.05c.22-.17.47-.36.57-.43s0,.01-.22.18l-5.94,4.67c-.47.37-1.22.85-1.77,1.1l-3.2,1.42c-.68.51-1.51-.41-.94-1.04l2.95-3.22c.19-.2.51-.51.72-.69l.69-.59c.21-.18.57-.45.8-.6l3.26-2.13c1.08-.71,1.37-1.12,2.66-1.24.33-.03,1.73-.4,2.06-.48,1.61-.35,1.58-.64,1.56-.63-2.84,1.24-4.22,1.16-4.91,1.01-.38-.08-.67-.36-.76-.74-.16-.69-.29-1.76.33-1.99,8.53-3.16,15.5-2.41,15.5-2.41.27.03.72.06,1,.06h.59c.27.02.7-.08.95-.19l37.35-17.71c.25-.12.59-.4.75-.62l12.24-16.56c.16-.22.49-.29.73-.15l19.85,11.77v.05Z" fill="none" stroke="#000" stroke-miterlimit="10"/><path d="M320.99,184.42l.24,17.7,16.49,1.21-2.73-11.35-1.15-11.68-6.06-4.61,6.16-5.03-2.52-2.98-4.12,1.45,1.43-3.42-3.37-.95-8.49-1.21-5.33,6.79c.73,20.85,9.46,14.06,9.46,14.06v.02Z" fill="#ffdbbb"/><path d="M338.18,204.16l-17.63-1.3-.24-17.28c-.95.5-2.64,1.08-4.38.27-3.08-1.44-4.79-6.55-5.09-15.2v-.18l5.62-7.16,8.77,1.25,3.99,1.11-1.22,2.9,3.38-1.19,3.07,3.63-6.06,4.95,5.73,4.36,1.17,11.9,2.88,11.95h0ZM321.54,201.93l15.35,1.13-2.57-10.69-1.14-11.53-6.39-4.86,6.25-5.1-1.97-2.32-4.86,1.72,1.65-3.94-2.83-.79-8.14-1.16-5.04,6.42c.38,10.11,2.65,13.28,4.5,14.14,2.03.95,4.12-.62,4.14-.64l.79-.61.25,18.24h.01Z"/><path d="M301.64,216.25c-4.4,27.47-8.26,61.38-8.26,61.38l61.83,3.18v-16.76c2.2-13.46,8.28-37.36,8.28-37.36l13.07,13.06c7.29-14.9,22.38-21.19,22.38-21.19l-32.44-22.36c-17.97-3.95-31.13-3.95-31.13-3.95-6.58,10.52-14,1.17-14,1.17-20.17,4.38-45.62,30.83-45.62,30.83,15.34,6.58,22.05,17.26,22.05,17.26l3.84-25.27h0Z" fill="#4e36f5" stroke="#000" stroke-miterlimit="10"/><path d="M355.71,281.34l-62.88-3.23.06-.53c.03-.24,1.9-16.66,4.5-35.77v-.02c-.08-.11-6.83-10.64-21.83-17.07l-.67-.28.5-.52c.06-.07,6.49-6.72,15.3-13.81,8.15-6.57,19.63-15.07,30.15-17.35,0,0,4.04,4.21,7.8,4,2.3-.13,4.42-1.73,6.31-4.76l.15-.23h.28c.13,0,13.41.05,31.23,3.96l.15.06,33.12,22.94-.74.31c-.15.06-15,6.39-22.12,20.95l-.31.63-12.94-12.93c-1.1,4.39-6.12,24.61-8.06,36.47v17.2-.02Z" fill="#4e36f5" stroke="#000" stroke-miterlimit="10"/><path d="M293.04,277.63l-42.36,3.66c25.41,21.73,20.4,53.89,20.4,53.89l14.15-2.55c42.27,8.99,52.87,19.59,52.87,19.59,0,0,15.28-31.16,18.57-42.21,6.51-21.91-1.81-36.81-1.81-36.81-24.61,7.95-61.82,4.43-61.82,4.43Z" fill="#b3b9c6"/><path d="M338.24,353.07l-.49-.49c-.11-.11-11.06-10.6-52.52-19.44l-14.67,2.29.03-.33c.05-.32,4.67-32.14-20.23-53.43l-1.12-.39,43.8-4.16h.04c.37.04,37.39,3.42,61.62-4.41l.39-.13.2.36c.08.15,8.34,15.33,1.85,37.2-3.26,10.96-18.45,41.98-18.6,42.29l-.31.63h0Z" fill="#b3b9c6" stroke="#000" stroke-miterlimit="10"/><path d="M308.31,166.41c4.76-9.74,18.14-8.78,19.92-8.08s7.06,3.02,7.06,11.57-1.39,10.67-1.39,10.67l-6.29-4.61s3.64-2.98,4.11-4.36c.75-2.23-1.42-2.49-2.12-2.18-1.09.49-3.85,2.83-3.85,2.83l-.54-2.06,3.9-3.46-5.84-2.38c-8.33.54-11.67,6.28-11.67,6.28-2.73-2.82,1.6-5.52,1.6-5.52l-3.79,2.81-1.08-1.52h-.02Z"/><path d="M334.01,181.29l-7.23-5.3.5-.41c1.36-1.12,3.64-3.23,3.95-4.14.21-.62.17-1.06-.12-1.33-.37-.34-1.07-.34-1.31-.23-.84.38-2.98,2.11-3.74,2.75l-.61.51-.82-3.12,3.53-3.13-4.99-2.03c-7.89.56-11.12,5.97-11.15,6.02l-.33.57-.46-.47c-.79-.82-1.14-1.72-1.02-2.67.02-.14.04-.28.08-.42l-1,.74-1.55-2.17.13-.27c4.87-9.96,18.5-9.13,20.55-8.32,6.09,2.39,7.37,7.87,7.37,12.04,0,8.6-1.41,10.86-1.47,10.95l-.29.44h-.02ZM328.41,175.94l5.27,3.87c.37-1.02,1.1-3.79,1.1-9.9,0-5.61-2.27-9.35-6.74-11.11-1.83-.72-14.54-1.36-19.15,7.57l.61.85,2.68-1.99c.39-.33.7-.52.73-.54l.56.83-.67.49c-.62.52-1.5,1.42-1.62,2.43-.06.47.06.92.35,1.36,1.12-1.52,4.68-5.49,11.67-5.94h.11l6.7,2.72-4.27,3.79.26,1c.89-.73,2.54-2.03,3.36-2.4.55-.25,1.68-.24,2.4.4.42.38.83,1.11.4,2.39-.41,1.2-2.71,3.27-3.77,4.18h.02Z"/><path d="M334.16,164.13l-16.79.04-4.51,4.63,22.34-.53c.05.17-.04-1.88-1.05-4.14h.01Z" fill="#9ca7ff" stroke="#000" stroke-miterlimit="10"/><path d="M315.5,179.12c3.27-.71,2.7-2.42,2.7-2.42" fill="#ffdbbb"/><ellipse cx="313.48" cy="172.63" rx=".5" ry=".66" transform="translate(-7.67 14.73) rotate(-2.66)"/><path d="M285.66,333.7c-.16.23-.48.31-.72.18s-.3-.42-.14-.64l13.48-19.35c.16-.23.47-.28.69-.12s.28.48.12.7l-13.42,19.22h0Z"/><path d="M364.06,227.87c-.11.23-.36.26-.56.07l-9.04-8.49c-.2-.19-.22-.51-.03-.72s.49-.22.69-.03l8.78,8.41c.2.19.27.53.16.76Z"/><path d="M384.97,249.5c-.05.27-.31.45-.57.4s-.44-.31-.4-.58l1.6-8.88c.05-.27.31-.48.59-.46h.01c.27.02.46.25.41.52l-1.64,9h0Z"/><path d="M283.3,405.1l37.58-10.93s5.01,9.84,6.08,27.37c.67,10.98,5.74,43.62,5.74,43.62l-22.43,9.95-26.97-70.01Z" fill="#fff"/><path d="M310,475.78l-.19-.49-27.17-70.52,38.5-11.19.19.37c.05.1,5.07,10.13,6.13,27.57.66,10.83,5.69,43.24,5.74,43.57l.06.38-23.26,10.32h0ZM283.96,405.43l26.59,69.01,21.7-9.26c-.57-3.69-5.16-33.36-5.79-43.6-.93-15.35-4.95-24.86-5.85-26.81l-36.65,10.66Z"/><path d="M332.67,465.35s11.16,18.38,6.68,22.56c-3.4,3.18-3.58,2.48-4.54,2.65-.15.03-2.68-.36-2.57-.47v-3.15l-6.72.21-.37,3.42-4.38-.16-.21-3.03h-12.5l-1.14,3.19-4.94-.35-1.26-3.9-2.84-.04-.39,4.22-4.49.27-2.75-3.38h-4.13l.54,3.34h-7.09l-.67-.91-4.63-4.14c.62-11.26,31.33-22.55,31.33-22.55l27.07,2.23h0Z"/><path d="M292.86,491.47l-2.65-4.25-3.79.02.93,4.17h-7.94l-.79-1.07-4.77-4.27v-.24c.64-11.45,30.4-22.52,31.67-22.99l.1-.04h.11l27.32,2.26.13.22c1.16,1.92,11.23,18.85,6.59,23.18-2.72,2.54-4.79,2.96-4.93,2.99-.03.04-3.02.04-3.02-1.38h0l.07-2.71h-5.87l-.3,4.04h-5.12l-.21-4.13-12.02-.1-1,4.27h-5.22l-1.62-4.09h-2.05l-.38,4.09-5.23.02h-.01ZM290.56,487.06l2.75,3.38,3.8-.23.39-4.26,3.66.06,1.26,3.92,4.22.3,1.14-3.18,13.47-.36.08,3.42,3.43.12.37-3.39,7.67-.24v3.32c.58.13,1.83.32,2.04.32.14-.03.31-.03.49-.04.54,0,1.1-.02,3.74-2.48,3.38-3.16-3.52-16.53-6.63-21.71l-26.7-2.2c-1.93.72-29.9,11.42-30.88,21.83l4.51,4.05.52.71h6.24l-.59-3.46,5.01.1v.02Z"/><path d="M133.19,508.97l-2-.04c-2.76-.06-4.95-2.35-4.89-5.11l3.9-175.01c-.06.06-.12.11-.18.17-5.26,4.84-12.37,7.32-19.5,6.79l-31.72-2.32c-7.15-.52-13.83-4.02-18.33-9.59s-6.51-12.83-5.52-19.93c4.8-34.35,14.65-106.83,27.19-209.38.33-2.73,2.84-4.69,5.57-4.36l1.99.24c2.73.33,4.69,2.84,4.36,5.57-12.81,104.74-22.82,178.15-27.51,211.65-.08.54-.07,1.09.03,1.62,1.46,7.19,6.75,11.74,13.1,12.21l31.72,2.32c3.9.29,7.62-1.01,10.5-3.66,2.88-2.64,4.48-6.25,4.52-10.16v-.19l8.89-214.34c.11-2.74,2.41-4.88,5.15-4.79l2.09.07c2.74.09,4.9,2.37,4.84,5.11l-9.09,408.23c-.06,2.76-2.35,4.95-5.11,4.89h0Z"/><path d="M288.94,421.26l37.46-9.46c-.65-4.16-.31-3.1-2.06-9.44l-38.45,10.74,3.05,8.17h0Z" fill="#4e36f5"/><path d="M216.49,349.04c28.1-7.02,30.26-7.68,30.5-7.67,0,0,0-.01,0,0,9.35,18,8.13,62.89,7.84,62.72h0s-17.93,17.8-17.93,17.8h0l-20.42-72.81s0-.04.02-.04h0Z" fill="#fff"/><path d="M236.64,422.85l-20.78-74.12.52-.18c16.88-4.22,24.51-6.17,27.76-7,1.72-.44,2.35-.6,2.62-.66l.17-.16.31.41.33.14c8.5,16.67,8.61,59,7.72,62.89h.03l-.03.17-.13.12-18.52,18.38h0ZM217.08,349.41l20.06,71.53,17.22-17.08.02-.1c.34-3.5,1.07-44.47-7.66-61.83-.35.09-1.07.27-2.34.59-3.23.82-10.74,2.74-27.3,6.88h0Z"/><path d="M251.75,354.03l-32.36,8.4,1.86,6.58s31.79-8,31.77-8.22c-.06-.98-1.28-6.76-1.28-6.76h0Z" fill="#4e36f5"/><path d="M269.77,242.1c-.25.11-.5-.02-.55-.28s.12-.56.37-.67l8.15-3.38c.25-.1.54,0,.64.2s-.03.48-.29.59l-8.33,3.55h0Z"/><path d="M516.19,513.03l-2-.04c-2.76-.06-4.95-2.35-4.89-5.11l3.9-175.01c-.06.06-.12.11-.18.17-5.26,4.84-12.37,7.32-19.5,6.79l-31.72-2.32c-7.15-.52-13.83-4.02-18.33-9.59s-6.51-12.83-5.52-19.93c4.8-34.35,14.65-106.83,27.19-209.38.33-2.73,2.84-4.69,5.57-4.36l1.99.24c2.73.33,4.69,2.84,4.36,5.57-12.81,104.74-22.82,178.15-27.51,211.65-.08.54-.07,1.09.03,1.62,1.46,7.19,6.75,11.74,13.1,12.21l31.72,2.32c3.9.29,7.62-1.01,10.5-3.66,2.88-2.64,4.48-6.25,4.52-10.16v-.19l8.89-214.34c.11-2.74,2.41-4.88,5.15-4.79l2.09.07c2.74.09,4.9,2.37,4.84,5.11l-9.09,408.23c-.06,2.76-2.35,4.95-5.11,4.89h0Z"/><path d="M294.11,467.37l2.75,6.92-2.75-6.92Z" fill="#fff" stroke="#fff" stroke-miterlimit="10"/><path d="M297.04,465.76l5.08,6.06-5.08-6.06Z" fill="#fff" stroke="#fff" stroke-miterlimit="10"/><path d="M255.58,402.31s21.29,2.99,21.69,9.1c.31,4.65-.34,4.34-.82,5.2-.07.13-1.98,1.84-1.99,1.69l-2.44-2-4.09,5.33,2.41,2.45-2.89,3.29-2.48-1.75-7.91,9.69,1.74,2.89-3.39,3.6-3.82-1.5-1.83,2.17,3.02,2.97-2.63,3.65h-4.36l-2.61,3.2,2.92,1.69-4.49,5.49-1.13-.05-6.14.96c-8.32-7.6,2.37-38.53,2.37-38.53l18.85-19.55h.02Z"/><path d="M250.61,449.66l-4.97-.64-2.38,2.95,3.81,1.92-5.03,6.15-1.33-.06-6.32.99-.18-.16c-8.47-7.74,1.79-37.78,2.23-39.06l.04-.1.08-.08,19.03-19.73.25.03c2.22.31,21.7,3.23,22.12,9.57.25,3.71-.74,5.58-.81,5.71.01.05-1.88,2.36-2.97,1.46h0l-2.05-1.77-3.71,4.54,2.94,2.79-3.24,3.97-3.33-2.46-7.69,9.24,2.67,3.48-3.3,4.04-4.19-1.33-1.3,1.59,2.92,2.88-3.3,4.06v.02ZM245.74,448.65h4.36l2.23-3.08-3.05-3,2.36-2.8,3.84,1.51,2.9-3.08-1.74-2.89,8.25-10.66,2.7,2.1,2.27-2.58-2.39-2.43,4.67-6.09,2.57,2.1c.47-.37,1.4-1.21,1.55-1.38.07-.13.17-.26.28-.4.34-.42.68-.86.44-4.46-.31-4.61-15.03-7.73-21.01-8.6l-18.6,19.28c-.66,1.95-10.08,30.38-2.64,37.73l5.99-.93.88.04,3.95-4.83-3.05-1.73,3.25-3.81h-.01Z"/><path d="M232.23,433.47l7,2.53-7-2.53Z" fill="#fff" stroke="#fff" stroke-miterlimit="10"/><path d="M232.96,430.2l7.91.21-7.91-.21Z" fill="#fff" stroke="#fff" stroke-miterlimit="10"/><ellipse cx="316.28" cy="172.23" rx=".5" ry=".66" transform="translate(-7.65 14.86) rotate(-2.66)"/><path d="M314.32,177.24l-.07-.2c-.12-.35.05-.73.38-.85l1.72-.75c.37-.1.76.05.91.39l.07.16c.16.35,0,.76-.35.91l-1.74.75c-.36.16-.78-.03-.92-.4Z"/></svg>