<?xml version="1.0" encoding="UTF-8"?><svg id="a" xmlns="http://www.w3.org/2000/svg" viewBox="0 0 595.28 595.28"><path d="M283.13,264.83c-43.79,0-79.42-35.15-79.42-78.35s35.63-78.35,79.42-78.35,79.42,35.15,79.42,78.35-35.63,78.35-79.42,78.35ZM283.13,119.12c-37.73,0-68.43,30.22-68.43,67.36s30.7,67.36,68.43,67.36,68.43-30.22,68.43-67.36-30.7-67.36-68.43-67.36Z"/><path d="M327.9,482.29l-3.93-20.76-10.79,11.96c-1.78,18.59,2.42,17.59,2.42,17.59l12.31-8.79Z"/><path d="M320.66,373.4c-12.93-6.87-8.28-13.38-8.28-13.38,0,0,7.4,1.35,8.68,3.28,1.4,2.11-.4,10.1-.4,10.1Z" fill="#0b0035"/><path d="M236.97,425.7l11.42-6.68c17.16-10.89,72.26,4.71,72.26,4.71,23.29,7.06,6.24,60.66,6.24,60.66l-63.35-33.54-11.45,10.87c-.06.06-.16.04-.2-.04l-14.93-35.99Z" fill="#ffdbbb" stroke="#000" stroke-miterlimit="10"/><path d="M251.83,341.8l-.37-6.39-2.36-7.85-.55-8.77-.91-6.57-.55-10.59,1.31-7.51c.16-.91,1.13-1.42,1.97-1.03h0c.42.2.81.93.77,1.39l-.61,5.87.48-6.17s-.04-1.05-1-1.2l-.24-7.02s-.27-1.38,1.55-.83c.39.12.66.48.68.89l.16,3.92.7,12.48,1.91-2.7c.26-.41.92-.75,1.35-.53h0c.71.36,1.04,1.19.77,1.94l-3.49,7.73,2.35,2.07,3.19-11.67c.14-.58.8-.86,1.31-.55l.12.08c.31.19.48.54.44.9l-1.21,10.89,2,6.57.18,16.55c0,.38.14.74.39,1.03,1.08,1.27,5.19,6.39,20.67,26.98-1.05.34,29.68-26.75,30.64-27.09.15-.21,2.94,1.89,3.16,2.03l14.7,8.32v.05c-1.65,17.55-47.52,53.9-54.29,50.29-13.06-6.95-25.23-53.52-25.23-53.52Z" fill="#ffdbbb" stroke="#000" stroke-miterlimit="10"/><path d="M354.29,298.05l.38,27.75,26.29,1.93-4.35-18.1-1.83-18.62-9.66-7.35,9.82-8.02-4.02-4.75-6.57,2.31,2.28-5.45-5.37-1.51-13.54-1.93-8.5,10.83c1.05,29.95,12.44,24.16,14.68,22.71.17-.11.39,0,.39.21Z" fill="#ffdbbb" stroke="#000" stroke-linecap="round" stroke-miterlimit="10"/><path d="M427.49,430.46l-73.46,7.73c.04-.29-21.78-55.82-23.03-75.56l-10.68,10.43c.32-.37-.99-18.69-20.27-25.99l-.81-.34.61-.63c.07-.08,7.86-8.14,18.54-16.73,9.87-7.96,23.34-18.04,36.08-20.8,0,0,.37,5.43,4.93,5.17,3.75-.64,16.83-6.48,16.83-6.48h0c.16,0,16.37,1.99,27.44,11.99,24.45,22.07,23.46,111.22,23.83,111.21Z" fill="#4e36f5" stroke="#000" stroke-miterlimit="10"/><path d="M410.7,378.53c-2.04,4.5-8.09,2.7-8.09,2.7l2.81-5.37,5.28,2.68Z" fill="#0b0035"/><path d="M359.38,428.04l-44.12-5.63c22.3,24.91-8.99,64.36-8.99,64.36l28.08.71c5.02,1.79,14.79,18.26,36.02,17.93,26.42-.41,42.38-13.18,49.63-26.22,9.36-20.85,7.31-49.96,7.31-49.96-25.45,4.61-67.93-1.18-67.93-1.18Z" fill="#b3b9c6" stroke="#000" stroke-miterlimit="10"/><path d="M333.17,482.72l9.85-12.35c1.43,6.34,4.18,17.17,10.96,22.45s14.92,6.2,22.06,5.05c10.23-1.65,25.41-15.15,19.46-32.5-4.16-12.14-27.04-52.62-49.73-51.43-10.03.52-37.78,36.79-41.66,43.31-1.41,2.37,29.05,25.47,29.05,25.47Z" fill="#ffdbbb" stroke="#000" stroke-miterlimit="10"/><path d="M334.6,268.83c7.59-15.53,28.92-14,31.76-12.88s11.26,4.82,11.26,18.45-2.22,17.01-2.22,17.01l-10.03-7.35s5.8-4.75,6.55-6.95c1.2-3.56-2.26-3.97-3.38-3.48-1.74.78-6.14,4.51-6.14,4.51l-.86-3.28,6.22-5.52-9.31-3.79c-13.28.86-18.61,10.01-18.61,10.01-4.35-4.5,2.55-8.8,2.55-8.8l-6.04,4.48-1.72-2.42-.03.02Z"/><path d="M375.58,292.55l-11.08-8.88,1.94-1.77c2.17-1.79,4.22-3.61,4.71-5.06.33-.99.27-1.69-.19-2.12-.59-.54-1.84-.35-2.23-.18-1.34.61-4.61,3.17-5.82,4.19l-.97.81-1.31-4.97,5.63-4.99-7.96-3.24c-12.58.89-17.73,9.52-17.78,9.6l-.53.91-.73-.75c-1.26-1.31-1.82-2.74-1.63-4.26.03-.22.06-.45.13-.67l-1.59,1.18-2.47-3.46.21-.43c7.76-15.88,29.5-14.56,32.76-13.27,9.71,3.81,11.75,12.55,11.75,19.2,0,13.71-2.25,17.32-2.34,17.46l-.46.7-.03-.02ZM366.65,284.02l8.4,6.17c.59-1.63,1.75-6.04,1.75-15.78,0-8.94-3.62-14.91-10.75-17.71-2.92-1.15-23.18-2.17-30.53,12.07l.97,1.36,4.27-3.17c.62-.53,1.12-.83,1.16-.86l.89,1.32-1.07.78c-.99.83-2.39,2.26-2.58,3.87-.1.75.1,1.47.56,2.17,1.79-2.42,7.46-8.75,18.61-9.47h.18l10.68,4.34-6.81,6.04.41,1.59c1.42-1.16,4.05-3.24,5.36-3.83.88-.4,2.68-.38,3.83.64.67.61,1.32,1.77.64,3.81-.65,1.91-4.32,5.21-6.01,6.66h.03Z"/><path d="M375.82,265.19l-26.77.06-7.19,7.38,35.62-.85c.08.27-.06-3-1.67-6.6h.02Z" fill="#9ca7ff" stroke="#000" stroke-miterlimit="10"/><ellipse cx="342.85" cy="278.74" rx=".8" ry="1.05" transform="translate(-12.57 16.21) rotate(-2.66)"/><path d="M378.77,359.74c-.08.26-.39.42-.68.34s-.47-.35-.4-.62l2.6-8.66c.08-.26.39-.45.71-.4h.01c.3.05.5.3.42.56l-2.66,8.78h0Z"/><path d="M236.97,425.7l15,36.15c.13-.12-16.02,7.24-26.54,9.05-10.84,1.87-42.72,10.5-42.72,10.5l-12.36-21.2,66.62-34.51Z" fill="#fff"/><path d="M236.64,425.83l-53.53,30.21,2.45,23.32c3.6-.97,29.58-7.75,39.69-9.5,15.15-2.61,24.65-6.85,26.49-7.96l-15.11-36.06Z" fill="#fff" stroke="#000" stroke-miterlimit="10"/><path d="M164.52,437.57l4.4-2.39.21-3.78-4.22.67.48-7.93,1.12-.72,4.55-4.5h.24c11.39,1.35,20.63,31.73,21.02,33.03l.03.1v.11s1.58,10.77,1.05,14.32-4.98,12.82-4.98,12.82l-.23.12c-1.99,1.04-19.5,10.06-23.54,5.17-2.37-2.87-2.66-4.96-2.68-5.1-.04-.03.14-3.02,1.56-2.93h0l2.7.23.36-5.86-4.01-.55.31-5.11,4.14.04.83-11.99-4.2-1.26.32-5.21,4.18-1.37.12-2.05-4.06-.63.3-5.22h0Z"/><path d="M222.38,433.81l12.94,34.45c1.26-.18,7.16-2,9.27-2.8l-14.76-36.4-7.62,4.32.18.43Z" fill="#4e36f5"/><path d="M188.5,440.29l-7.07,2.32,7.07-2.32Z" fill="#fff" stroke="#fff" stroke-linecap="round" stroke-linejoin="round"/><path d="M189.93,443.31l-6.36,4.7,6.36-4.7Z" fill="#fff" stroke="#fff" stroke-linecap="round" stroke-linejoin="round"/><ellipse cx="347.31" cy="278.1" rx=".8" ry="1.05" transform="translate(-12.53 16.42) rotate(-2.66)"/><path d="M39.83,506.27c-6.27,0-11.48-.34-15.07-.67-2.86-.26-4.9-2.88-4.47-5.72l.26-1.71c.44-2.92,2.8-4.76,5.43-4.54,13.36,1.15,52.41,2.49,78.58-17.49,14.22-10.87,22.65-26.64,25.05-46.88l.03-.24c.06-.38,5.86-39.51-17.17-67.71-14.9-18.24-38.7-28.24-70.75-29.71l-1.09-.05c-2.93-.13-5.11-2.75-4.73-5.65l30.5-229.45c.35-2.61,2.66-4.5,5.28-4.33l81.29,5.29c2.76.18,4.84,2.56,4.66,5.31l-.13,2c-.18,2.76-2.56,4.84-5.31,4.66l-70.09-4.56c-2.63-.17-4.93,1.72-5.28,4.33l-27.35,205.76c-.37,2.78,1.63,5.31,4.41,5.62,29.9,3.41,52.73,14.58,67.95,33.28,25.96,31.88,20.15,73.83,19.67,76.97-2.82,23.56-12.82,42.04-29.72,54.93-22.61,17.25-52.42,20.56-71.97,20.56Z"/><ellipse cx="512.07" cy="299.1" rx="225.22" ry="41.64" transform="translate(188.75 796.23) rotate(-87.25)" fill="none" stroke="#000" stroke-miterlimit="10" stroke-width="12"/><ellipse cx="346.75" cy="287.93" rx="2.78" ry="3.5"/><path d="M410.24,378.41s4.36-11.57,5.64-17.45c2.8-12.89-1.67-24.93-1.67-24.93" fill="none" stroke="#000" stroke-miterlimit="10"/><path d="M378.17,359.72l-2.55,11.62-32-33.77c-.03-.12-.1-.21-.18-.29l-6.34-7.81,1.07-8.53,1.46-8.53c.08-.77.37-1.51.86-2.12l1.62-2.03.71-2.61,2.49-1.9s.67-1.81-2.87-2.01c-.96-.05-1.9.3-2.58.98-1,.99-2.44,2.83-3.56,5.89l-3.32,4.5-2.25-1.07-6.74-19.33c-.26-.73-.89-1.28-1.66-1.38-.89-.12-1.9.02-1.9,1.29l3.32,18.24-1.42.12-9.36-14.8c-.65-1.03-2.02-1.43-3.05-.8-.6.37-1.02,1-.74,2.09l9.24,17.41-.71,1.18-12.6-12.28c-.56-.55-1.5-.58-2.02,0-.3.35-.44.88-.07,1.71l13.08,15.14-1.38,2.06-9.98-6.54s-4.47-1.38-2.75,2.75l11.01,8.26s12.73,11.36,18.36,17.78c0,0,17.08,33.15,23.06,40.04,5.58,6.44,16.37,18.28,23.79,21.07,11.85,4.46,17.39-12.56,26.92-29.88l-26.96-16.5Z" fill="#ffdbbb" stroke="#000" stroke-miterlimit="10"/><path d="M255.33,323c.85-1.14,5.9-7.3,7.47-9.23.33-.4.53-.9.55-1.42.01-.37-.01-.67-.06-.92-.18-.95-1.37-1.28-2.05-.59l-6.25,6.41-1.62,1.39c-.38.32-.96.21-1.18-.24l-.17-.34c-.15-.31-.21-.66-.15-1l1.35-7.87" fill="#ffdbbb" stroke="#000" stroke-linecap="round" stroke-miterlimit="10"/><polyline points="252.87 302.42 250.27 306.07 249.19 311.36" fill="#ffdbbb" stroke="#000" stroke-linecap="round" stroke-miterlimit="10"/><line x1="346.03" y1="466.42" x2="342.55" y2="470.99" fill="none" stroke="#000" stroke-linecap="round" stroke-miterlimit="10"/><path d="M304.11,457.25l28.37,23.88s-9.86,14.55-17.87,21.61c-8.25,7.27-30.9,31.32-30.9,31.32l-21.63-11.59,42.03-65.21Z" fill="#fff"/><path d="M304.11,457.25l-33.34,54.97,14.3,18.58c2.56-2.72,21.15-22.09,28.84-28.88,11.54-10.16,18.27-17.29,19.25-19.2l-29.05-25.47Z" fill="#fff" stroke="#000" stroke-miterlimit="10"/><path d="M293.74,473.41l27.91,21.89c.97-.81,5.57-4.65,6.94-6.43l-30.51-22.75-4.19,6.98-.15.3Z" fill="#4e36f5"/><path d="M285.01,515.73c-1.41-3.3-8.39-11.64-8.39-11.64l-.05-.1-.08-.07c-1.01-.9-23.85-18.46-32.88-16.63-3.87.78-7.94,2.39-6.25,8.55l-.63,3-1.32,2.63,2.44,6.11,4.17-1.37c.5.27.64,1.29,1.23,1.58h0l-.14,1.65-2.41,2.01,2.24,3.87,3.3-2.6,2.11,2.82-4.16,2.61,2.97,4.58,3.1-.5,3.61,4.31-1.22,2.11,5.66,5.96,1.49-.12,4.52,1.96h0c-1.18.62.35,2.74.4,2.75.1.09,1.51,1.37,5.03,2.19.59.14.94,0,1.1-.35.14.07.28.13.46.17,5.64,1.41,15.39-10.65,16.04-11.74l.13-.22s-1.12-10.36-2.47-13.52Z"/><path d="M267.12,495.99l-2.25,10.61,2.25-10.61Z" fill="#fff" stroke="#fff" stroke-linecap="round" stroke-linejoin="round"/><path d="M269.92,497.81l-.15,6.82.15-6.82Z" fill="#fff" stroke="#fff" stroke-linecap="round" stroke-linejoin="round"/><path d="M233.79,493.75s-.22-1.32,6.72-1.57c6.95-.25,15.33,11.11,15.33,11.11l9.08,14.62,13.64,21.37" fill="none" stroke="#fff" stroke-miterlimit="10"/></svg>