<?xml version="1.0" encoding="UTF-8"?><svg xmlns="http://www.w3.org/2000/svg" viewBox="0 0 471.47 415.24"><g id="a"><path d="M12.06,276.42l230.18-34.48,80.92,25.77-.51-230.68L99.27,6v312.37l-87.21-41.95V85.51S65.88,27.27,99.27,6" fill="none" stroke="#000" stroke-linecap="round" stroke-linejoin="round" stroke-width="12"/><polyline points="242.24 241.94 239.25 90.52 322.65 37.02" fill="none" stroke="#000" stroke-linecap="round" stroke-linejoin="round" stroke-width="12"/><line x1="12.06" y1="85.51" x2="234.16" y2="88.64" fill="none" stroke="#000" stroke-linecap="round" stroke-linejoin="round"/><line x1="239.16" y1="167.06" x2="13.92" y2="182.91" fill="none" stroke="#000" stroke-linecap="round" stroke-linejoin="round"/><line x1="10.59" y1="131.18" x2="233.32" y2="124.51" fill="none" stroke="#000" stroke-linecap="round" stroke-linejoin="round"/><line x1="17.26" y1="229.62" x2="241.49" y2="203.76" fill="none" stroke="#000" stroke-linecap="round" stroke-linejoin="round"/><line x1="71.61" y1="86.52" x2="71.74" y2="268.95" fill="none" stroke="#000" stroke-linecap="round" stroke-linejoin="round"/><line x1="138.42" y1="86.79" x2="138.07" y2="258.71" fill="none" stroke="#000" stroke-linecap="round" stroke-linejoin="round"/><line x1="182.84" y1="87.91" x2="184.5" y2="247.1" fill="none" stroke="#000" stroke-linecap="round" stroke-linejoin="round"/><line x1="71.61" y1="86.52" x2="150.29" y2="13.39" fill="none" stroke="#000" stroke-linecap="round" stroke-linejoin="round"/><line x1="138.42" y1="86.79" x2="193.63" y2="21.92" fill="none" stroke="#000" stroke-linecap="round" stroke-linejoin="round"/><line x1="182.84" y1="87.91" x2="247.95" y2="26.16" fill="none" stroke="#000" stroke-linecap="round" stroke-linejoin="round"/><line x1="55.76" y1="44.51" x2="279.86" y2="63.97" fill="none" stroke="#000" stroke-linecap="round" stroke-linejoin="round"/><line x1="55.76" y1="44.51" x2="51.95" y2="295.5" fill="none" stroke="#000" stroke-linecap="round" stroke-linejoin="round"/><line x1="283.47" y1="253.22" x2="283.47" y2="58.94" fill="none" stroke="#000" stroke-linecap="round" stroke-linejoin="round"/><line x1="242.72" y1="123.37" x2="322.89" y2="102.71" fill="none" stroke="#000" stroke-linecap="round" stroke-linejoin="round"/><line x1="239.16" y1="167.06" x2="325.32" y2="173.17" fill="none" stroke="#000" stroke-linecap="round" stroke-linejoin="round"/><line x1="235.43" y1="205.97" x2="322.56" y2="230.32" fill="none" stroke="#000" stroke-linecap="round" stroke-linejoin="round"/><line x1="17.99" y1="131.87" x2="105.45" y2="116.08" fill="none" stroke="#000" stroke-linecap="round" stroke-linejoin="round"/><line x1="13.92" y1="182.91" x2="96.95" y2="198.68" fill="none" stroke="#000" stroke-linecap="round" stroke-linejoin="round"/><line x1="17.26" y1="229.62" x2="98.16" y2="250.91" fill="none" stroke="#000" stroke-linecap="round" stroke-linejoin="round"/></g><g id="b"><path d="M371.36,356.1l-3.93-20.76-10.79,11.96c-1.78,18.59,2.42,17.59,2.42,17.59l12.31-8.79Z"/><path d="M280.43,299.5l11.42-6.68c17.16-10.89,72.26,4.71,72.26,4.71,23.29,7.06,6.24,60.66,6.24,60.66l-63.35-33.54-11.45,10.87c-.06.06-.16.04-.2-.04l-14.93-35.99Z" fill="#ffdbbb" stroke="#000" stroke-miterlimit="10"/><path d="M347.63,154.9l5.96-2.33,6.7-4.77,8.16-3.24,5.96-2.93,9.9-3.81,7.58-1.01c.92-.12,1.72.69,1.63,1.64h0c-.05.48-.62,1.09-1.07,1.2l-5.79,1.2,6.03-1.42s.98-.36.81-1.36l6.6-2.4s1.22-.7,1.31,1.29c.02.43-.24.81-.62.95l-3.68,1.36-11.64,4.54,3.2,1.07c.47.13,1.02.68.95,1.18h0c-.11.82-.79,1.4-1.59,1.37l-8.51-1.1-1.2,2.97,12.16-.42c.6-.04,1.08.53.95,1.14l-.03.15c-.08.36-.36.64-.71.71l-10.76,2.15-5.6,4.01-15.59,5.24c-.38.13-.75.36-.95.71-.81,1.47-5.74,2.26-20.22,23.94-.02.03,0,.06.03.05,2.77-.9,41.15-1.85,41.76-1.04.25.08,16.74-1.04,16.69-.78l-3.1,11.25-1.55,17.07c-17.24,3.77-87.56-9.18-86.36-17.02,2.31-15.13,42.62-41.57,42.62-41.57Z" fill="#ffdbbb" stroke="#000" stroke-miterlimit="10"/><path d="M397.75,171.86l.38,27.75,26.29,1.93-4.35-18.1-1.83-18.62-9.66-7.35,9.82-8.02-4.02-4.75-6.57,2.31,2.28-5.45-5.37-1.51-13.54-1.93-8.5,10.83c1.05,29.95,12.44,24.16,14.68,22.71.17-.11.39,0,.39.21Z" fill="#ffdbbb" stroke="#000" stroke-linecap="round" stroke-miterlimit="10"/><path d="M470.78,303.03l-69.94,13.25c.04-.29-29.31-72.56-29.37-93.7l-20.57-1.16c-.87,1.03-3.76-35.03-3.76-35.03,0,0,34.15-3.98,50.67-1.43,0,0,.25,8.9,4.81,8.64,3.75-.64,18.43-8.61,18.43-8.61l1.99.37c.16,0,16.37,1.99,27.44,11.99,24.45,22.07,19.94,105.7,20.31,105.69Z" fill="#4e36f5" stroke="#000" stroke-miterlimit="10"/><path d="M457.97,254.29c-2.04,4.5-11.55,1.08-11.55,1.08l2.81-5.37,8.74,4.29Z" fill="#0b0035"/><path d="M402.84,301.85l-44.12-5.63c22.3,24.91-8.99,64.36-8.99,64.36l28.08.71c5.02,1.79,15.06,21.32,36.02,17.93,26.84-4.34,42.38-13.18,49.63-26.22,9.36-20.85,7.31-49.96,7.31-49.96-25.45,4.61-67.93-1.18-67.93-1.18Z" fill="#b3b9c6" stroke="#000" stroke-miterlimit="10"/><path d="M376.63,356.52l9.85-12.35c1.43,6.34,4.18,17.17,10.96,22.45s14.92,6.2,22.06,5.05c10.23-1.65,25.41-15.15,19.46-32.5-4.16-12.14-27.04-52.62-49.73-51.43-10.03.52-37.78,36.79-41.66,43.31-1.41,2.37,29.05,25.47,29.05,25.47Z" fill="#ffdbbb" stroke="#000" stroke-miterlimit="10"/><path d="M378.06,142.63c7.59-15.53,28.92-14,31.76-12.88s11.26,4.82,11.26,18.45-2.22,17.01-2.22,17.01l-10.03-7.35s5.8-4.75,6.55-6.95c1.2-3.56-2.26-3.97-3.38-3.48-1.74.78-6.14,4.51-6.14,4.51l-.86-3.28,6.22-5.52-9.31-3.79c-13.28.86-18.61,10.01-18.61,10.01-4.35-4.5,2.55-8.8,2.55-8.8l-6.04,4.48-1.72-2.42-.03.02Z"/><path d="M419.04,166.36l-11.08-8.88,1.94-1.77c2.17-1.79,4.22-3.61,4.71-5.06.33-.99.27-1.69-.19-2.12-.59-.54-1.84-.35-2.23-.18-1.34.61-4.61,3.17-5.82,4.19l-.97.81-1.31-4.97,5.63-4.99-7.96-3.24c-12.58.89-17.73,9.52-17.78,9.6l-.53.91-.73-.75c-1.26-1.31-1.82-2.74-1.63-4.26.03-.22.06-.45.13-.67l-1.59,1.18-2.47-3.46.21-.43c7.76-15.88,29.5-14.56,32.76-13.27,9.71,3.81,11.75,12.55,11.75,19.2,0,13.71-2.25,17.32-2.34,17.46l-.46.7-.03-.02ZM410.11,157.83l8.4,6.17c.59-1.63,1.75-6.04,1.75-15.78,0-8.94-3.62-14.91-10.75-17.71-2.92-1.15-23.18-2.17-30.53,12.07l.97,1.36,4.27-3.17c.62-.53,1.12-.83,1.16-.86l.89,1.32-1.07.78c-.99.83-2.39,2.26-2.58,3.87-.1.75.1,1.47.56,2.17,1.79-2.42,7.46-8.75,18.61-9.47h.18l10.68,4.34-6.81,6.04.41,1.59c1.42-1.16,4.05-3.24,5.36-3.83.88-.4,2.68-.38,3.83.64.67.61,1.32,1.77.64,3.81-.65,1.91-4.32,5.21-6.01,6.66h.03Z"/><path d="M419.27,139l-26.77.06-7.19,7.38,35.62-.85c.08.27-.06-3-1.67-6.6h.02Z" fill="#9ca7ff" stroke="#000" stroke-miterlimit="10"/><ellipse cx="386.31" cy="152.54" rx=".8" ry="1.05" transform="translate(-6.66 18.09) rotate(-2.66)"/><path d="M280.43,299.5l15,36.15c.13-.12-16.02,7.24-26.54,9.05-10.84,1.87-42.72,10.5-42.72,10.5l-12.36-21.2,66.62-34.51Z" fill="#fff"/><path d="M280.1,299.63l-53.53,30.21,2.45,23.32c3.6-.97,29.58-7.75,39.69-9.5,15.15-2.61,24.65-6.85,26.49-7.96l-15.11-36.06Z" fill="#fff" stroke="#000" stroke-miterlimit="10"/><path d="M342.38,226.65l20.05-31.15-20.05,31.15Z" fill="#ffdbbb" stroke="#000" stroke-linecap="round" stroke-linejoin="round" stroke-width="3"/><ellipse cx="368.95" cy="185.95" rx="11.14" ry="10.8" fill="none" stroke="#000" stroke-miterlimit="10" stroke-width="3"/><path d="M207.98,311.38l4.4-2.39.21-3.78-4.22.67.48-7.93,1.12-.72,4.55-4.5h.24c11.39,1.35,20.63,31.73,21.02,33.03l.03.1v.11s1.58,10.77,1.05,14.32-4.98,12.82-4.98,12.82l-.23.12c-1.99,1.04-19.5,10.06-23.54,5.17-2.37-2.87-2.66-4.96-2.68-5.1-.04-.03.14-3.02,1.56-2.93h0l2.7.23.36-5.86-4.01-.55.31-5.11,4.14.04.83-11.99-4.2-1.26.32-5.21,4.18-1.37.12-2.05-4.06-.63.3-5.22h0Z"/><path d="M265.84,307.61l12.94,34.45c1.26-.18,7.16-2,9.27-2.8l-14.76-36.4-7.62,4.32.18.43Z" fill="#4e36f5"/><path d="M231.96,314.09l-7.07,2.32,7.07-2.32Z" fill="#fff" stroke="#fff" stroke-linecap="round" stroke-linejoin="round"/><path d="M233.39,317.12l-6.36,4.7,6.36-4.7Z" fill="#fff" stroke="#fff" stroke-linecap="round" stroke-linejoin="round"/><ellipse cx="390.77" cy="151.91" rx=".8" ry="1.05" transform="translate(-6.63 18.3) rotate(-2.66)"/><path d="M457.62,253.95s4.28-11.13,5.77-17.16c3.26-13.22-4.68-27.87-4.68-27.87" fill="none" stroke="#000" stroke-linecap="round" stroke-miterlimit="10"/><path d="M422.27,240.24l-2.24,11.52-38.59-26c-.06-.11-.14-.19-.24-.24l-7.89-6.25-9.66-17.35-6.98-1.64c-.1-.77,4.34,3.62,4.34,3.62l-10.01-6.92c-.41-.66-2.16-.41-2.71.27s-.95,1.53-.68,2.77l6.23,5.98h0l-7.41-6.92c-.86-.86-2.83-.09-3.56.88-1.58,2.11.57,3.06,1.09,4.06l7.5,6.4h0l-8.27-6.39c-.67-.41-1.7.43-2.08,1.12-.22.41-.22,2.47.32,3.19l8.21,6.68h0l-6.43-5.07c-.26-.17-1.54-.37-1.85-.37-1.19,0-2.43,1.03-.37,3.95l8.3,8.76s14.9,8.31,21.79,13.36c0,0,23.89,28.64,31.22,34.06,6.85,5.07,19.96,14.28,27.81,15.39,12.53,1.77,13.73-15.54,19.26-34.52,0,0-18.85-12.93-27.12-10.36Z" fill="#ffdbbb" stroke="#000" stroke-miterlimit="10"/><path d="M366.56,152.28c1.35.46,8.77,3.33,11.1,4.23.48.19,1.02.23,1.52.08.35-.1.63-.22.86-.34.84-.47.79-1.7-.08-2.13l-8.04-3.95-1.83-1.11c-.43-.26-.49-.85-.14-1.2l.27-.27c.25-.24.56-.4.9-.45l7.9-1.17" fill="#ffdbbb" stroke="#000" stroke-linecap="round" stroke-miterlimit="10"/><line x1="389.49" y1="340.23" x2="386.01" y2="344.79" fill="none" stroke="#000" stroke-linecap="round" stroke-miterlimit="10"/><path d="M347.57,331.05l28.37,23.88s-9.86,14.55-17.87,21.61c-8.25,7.27-30.9,31.32-30.9,31.32l-21.63-11.59,42.03-65.21Z" fill="#fff"/><path d="M347.57,331.05l-33.34,54.97,14.3,18.58c2.56-2.72,21.15-22.09,28.84-28.88,11.54-10.16,18.27-17.29,19.25-19.2l-29.05-25.47Z" fill="#fff" stroke="#000" stroke-miterlimit="10"/><path d="M337.2,347.22l27.91,21.89c.97-.81,5.57-4.65,6.94-6.43l-30.51-22.75-4.19,6.98-.15.3Z" fill="#4e36f5"/><path d="M328.47,389.54c-1.41-3.3-8.39-11.64-8.39-11.64l-.05-.1-.08-.07c-1.01-.9-23.85-18.46-32.88-16.63-3.87.78-7.94,2.39-6.25,8.55l-.63,3-1.32,2.63,2.44,6.11,4.17-1.37c.5.27.64,1.29,1.23,1.58h0l-.14,1.65-2.41,2.01,2.24,3.87,3.3-2.6,2.11,2.82-4.16,2.61,2.97,4.58,3.1-.5,3.61,4.31-1.22,2.11,5.66,5.96,1.49-.12,4.52,1.96h0c-1.18.62.35,2.74.4,2.75.1.09,1.51,1.37,5.03,2.19.59.14.94,0,1.1-.35.14.07.28.13.46.17,5.64,1.41,15.39-10.65,16.04-11.74l.13-.22s-1.12-10.36-2.47-13.52Z"/><path d="M310.58,369.79l-2.25,10.61,2.25-10.61Z" fill="#fff" stroke="#fff" stroke-linecap="round" stroke-linejoin="round"/><path d="M313.37,371.62l-.15,6.82.15-6.82Z" fill="#fff" stroke="#fff" stroke-linecap="round" stroke-linejoin="round"/><path d="M277.25,367.55s-.22-1.32,6.72-1.57c6.95-.25,15.33,11.11,15.33,11.11l9.08,14.62,13.64,21.37" fill="none" stroke="#fff" stroke-miterlimit="10"/><path d="M361.97,182.39c.96-2.18,4.64-3.09,4.64-3.09" fill="none" stroke="#000" stroke-linecap="round" stroke-linejoin="round"/><line x1="368.2" y1="179.3" x2="368.74" y2="179.31" fill="none" stroke="#000" stroke-linecap="round" stroke-miterlimit="10"/><path d="M334.68,192.3l2.91-5.32" fill="#ffdbbb" stroke="#000" stroke-linecap="round" stroke-miterlimit="10"/><line x1="420.03" y1="251.76" x2="426.71" y2="257.05" fill="#ffdbbb" stroke="#000" stroke-linecap="round" stroke-miterlimit="10"/><line x1="422.27" y1="240.24" x2="424.01" y2="231.62" fill="none" stroke="#000" stroke-linecap="round" stroke-miterlimit="10"/><line x1="388.09" y1="159.72" x2="390.67" y2="159.08" fill="none" stroke="#000" stroke-linecap="round" stroke-miterlimit="10"/></g></svg>