<?xml version="1.0" encoding="UTF-8"?><svg id="LOGO" xmlns="http://www.w3.org/2000/svg" xmlns:xlink="http://www.w3.org/1999/xlink" viewBox="0 0 64 64"><defs><linearGradient id="linear-gradient" x1="9.02" y1="-307.44" x2="43.31" y2="-307.44" gradientTransform="translate(0 -270.72) scale(1 -1)" gradientUnits="userSpaceOnUse"><stop offset="0" stop-color="#4e36f5"/><stop offset="0" stop-color="#d6d2f5"/><stop offset=".32" stop-color="#dbd8f5"/><stop offset="1" stop-color="#4e36f5"/></linearGradient></defs><rect width="64" height="64" rx="5.64" ry="5.64" fill="#121621"/><path d="M58.57,54.77c-.9-1.47-14.74-21.97-21.25-31.51,3.88.73,9.93,1.89,10.77,2.05,2.13.42,2.63-1.53.55-2.47s-10.48-3.89-15.06-5.5c-.51-.18-3.79-1.24-4.74-1.17-1.89.08-3.58,1.33-4.73,3.9-1.14,2.57-2.44,5.48-2.77,6.02-.33.54-.94,1.78-1.91,1.23-.96-.55-6.66-3.65-8.41-4.71-1.75-1.06-2.59-.18-1.55,1.3s8.76,7.69,9.8,8.76c1.04,1.06,3.27,2.03,4.84.11.84-1.02,1.78-2.76,2.04-3.17,0,0,1.41,1.15,1.65,1.37.7.63,2.69,2.42,3.42,3.08-.08.05.1-.04,0,0-1.89.86-4.2,2.07-4.8,2.78-1.32,1.56-.91,2.7.1,4.73,1.57,3.14,3.86,7.16,5.37,9.99,1.25,2.36,4.19,1.49,3.52-.83-.73-2.52-3.37-7.97-3.81-9.8-.19-.78,4.53-1.28,5.98-1.54.14-.03-.06.12,0,0,6.54,6.02,12.64,12.22,18.41,17.43,1.73,1.17,3.71-.18,2.57-2.05h0Z" fill="url(#linear-gradient)"/><path d="M22.98,15.74c2.67,0,4.83-2.21,4.83-4.93s-2.16-4.93-4.83-4.93-4.83,2.21-4.83,4.93,2.16,4.93,4.83,4.93Z" fill="#dbd8f5"/><path d="M13.91,57.27c2.67,0,4.83-2.21,4.83-4.93s-2.16-4.93-4.83-4.93-4.83,2.21-4.83,4.93,2.16,4.93,4.83,4.93Z" fill="#dbd8f5"/></svg>